<svg width="28" height="24" viewBox="0 0 28 24" fill="none" xmlns="http://www.w3.org/2000/svg">
<path d="M10.4184 21.6364C10.4184 22.8292 9.45147 23.7961 8.25875 23.7961C7.06602 23.7961 6.09912 22.8292 6.09912 21.6364C6.09912 20.4437 7.06602 19.4768 8.25875 19.4768C9.45147 19.4768 10.4184 20.4437 10.4184 21.6364Z" fill="#019BF0"/>
<path d="M5.5 2H26.5L24 12.5L7.5 13L5.5 2Z" fill="#019BF0"/>
<path d="M6 8C6.17997 9.01982 6.82003 12.218 7 13.3578H20.6765C24.3358 13.3578 24.5758 12.4579 25.4756 9.03853L26.9257 3.94033C27.2828 2.64186 26.3057 1.35986 24.9591 1.35986L4.5 1.5" stroke="#1E22AA" stroke-width="2"/>
<path d="M24.0961 21.6364C24.0961 22.8292 23.1292 23.7961 21.9365 23.7961C20.7438 23.7961 19.7769 22.8292 19.7769 21.6364C19.7769 20.4437 20.7438 19.4768 21.9365 19.4768C23.1292 19.4768 24.0961 20.4437 24.0961 21.6364Z" fill="#019BF0"/>
<path d="M23.2561 16.8372H10.0584C8.32849 16.7302 7.62659 16.2315 6.99896 14.3177L5.19927 3.15962C4.86944 1.57198 4.35599 1.12076 2.91967 1H1" stroke="#1E22AA" stroke-width="2" stroke-linecap="round"/>
</svg>
