<svg width="11" height="15" viewBox="0 0 11 15" fill="none" xmlns="http://www.w3.org/2000/svg">
<path d="M5.84949 13.3115L0.038269 7.50027V8.68744C0.038269 9.00204 0.162922 9.30477 0.388485 9.5244L5.01253 14.1484C5.47553 14.6114 6.22938 14.6114 6.69238 14.1484L10.3786 10.4623C10.8416 9.99927 10.8416 9.24541 10.3786 8.78242L5.84949 13.3115Z" fill="#767676"/>
<path d="M5.01259 11.1805C5.24409 11.412 5.54682 11.5307 5.84955 11.5307C6.15228 11.5307 6.45501 11.412 6.68651 11.1805L10.3727 7.49433C10.8357 7.03133 10.8357 6.27748 10.3727 5.81448L5.74864 1.19043C5.52901 0.970807 5.22628 0.846153 4.91168 0.846153H1.2255C0.572559 0.846153 0.0383301 1.38038 0.0383301 2.03333V5.7195C0.0383301 6.03411 0.162983 6.33683 0.388546 6.55646L5.01259 11.1805ZM1.2255 2.03333H4.91168L9.53573 6.65737L5.84955 10.3435L1.2255 5.7195V2.03333Z" fill="#767676"/>
<path d="M2.56101 4.11088C2.9708 4.11088 3.303 3.77869 3.303 3.3689C3.303 2.95911 2.9708 2.62691 2.56101 2.62691C2.15123 2.62691 1.81903 2.95911 1.81903 3.3689C1.81903 3.77869 2.15123 4.11088 2.56101 4.11088Z" fill="#767676"/>
</svg>
