<svg width="44" height="12" viewBox="0 0 44 12" fill="none" xmlns="http://www.w3.org/2000/svg">
<path d="M19.7706 5.60108H21.6063C21.6982 5.601 21.7891 5.61905 21.8739 5.65419C21.9587 5.68933 22.0358 5.74086 22.1007 5.80584C22.1656 5.87082 22.217 5.94797 22.252 6.03286C22.287 6.11774 22.3049 6.2087 22.3046 6.30052C22.3089 6.93123 22.1281 7.54935 21.7846 8.07832C21.4411 8.60728 20.95 9.02386 20.372 9.27645C19.7941 9.52905 19.1547 9.60655 18.5332 9.49938C17.9116 9.39221 17.3352 9.10506 16.8752 8.6735C16.8524 8.65181 16.8307 8.62954 16.8084 8.6067C16.2007 7.99209 15.8598 7.1626 15.8598 6.29824C15.8598 5.43388 16.2007 4.60439 16.8084 3.98978C17.0999 3.68078 17.4524 3.43578 17.8436 3.27034C18.2348 3.10491 18.6562 3.02266 19.0809 3.02883C19.894 3.02883 20.5854 3.28101 21.1553 3.78537C21.2695 3.88632 21.3389 4.0285 21.3484 4.18065C21.3578 4.33279 21.3064 4.48246 21.2055 4.59673C21.1811 4.62412 21.1541 4.64917 21.125 4.67153L20.9212 4.82683C20.8199 4.90581 20.6949 4.94814 20.5665 4.9469C20.4381 4.94565 20.314 4.90091 20.2143 4.81998C19.8971 4.5547 19.4943 4.41385 19.0809 4.42372C18.8398 4.42064 18.6006 4.46785 18.3788 4.56232C18.1569 4.65679 17.9571 4.79647 17.7922 4.97243C17.449 5.32903 17.2572 5.80473 17.2572 6.29967C17.2572 6.79461 17.449 7.27031 17.7922 7.6269C18.0907 7.93495 18.4895 8.12599 18.9166 8.16547C19.3437 8.20495 19.7708 8.09027 20.1207 7.84216C20.4212 7.63209 20.6516 7.33645 20.7818 6.99369H19.7741C19.5891 6.99354 19.4118 6.91996 19.2811 6.78913C19.1503 6.65829 19.0769 6.48091 19.0769 6.29596C19.0775 6.11205 19.1508 5.93582 19.2807 5.80567C19.4106 5.67552 19.5867 5.60198 19.7706 5.60108Z" fill="#DADCE0"/>
<path d="M28.1069 7.80562C28.1787 7.86135 28.2387 7.93067 28.2837 8.00962C28.3286 8.08857 28.3576 8.17561 28.3689 8.26575C28.3802 8.3559 28.3736 8.44738 28.3495 8.53498C28.3254 8.62258 28.2843 8.70458 28.2285 8.77628C28.1918 8.82358 28.149 8.86582 28.1012 8.9019C27.9657 9.00692 27.8219 9.10086 27.6713 9.18282C27.2071 9.4365 26.686 9.56813 26.157 9.56537C25.7317 9.57203 25.3097 9.48991 24.9179 9.32425C24.5261 9.1586 24.1732 8.91304 23.8817 8.60328C23.2765 7.9872 22.9374 7.15813 22.9374 6.29453C22.9374 5.43093 23.2765 4.60186 23.8817 3.98579C24.173 3.67674 24.5254 3.43171 24.9165 3.26627C25.3077 3.10083 25.729 3.01861 26.1536 3.02483C26.6832 3.0227 27.2045 3.15617 27.6678 3.41253C27.8467 3.50969 28.0164 3.62282 28.1749 3.75054C28.2486 3.81123 28.3077 3.88775 28.3478 3.97441C28.388 4.06108 28.4081 4.15566 28.4066 4.25115C28.4052 4.34664 28.3823 4.44059 28.3396 4.52601C28.2969 4.61144 28.2355 4.68615 28.16 4.74462L28.0715 4.81599C27.9604 4.90432 27.8226 4.9524 27.6807 4.9524C27.5387 4.9524 27.401 4.90432 27.2899 4.81599C26.9707 4.5543 26.5679 4.41663 26.1553 4.42829C25.9142 4.42521 25.6751 4.47242 25.4532 4.56689C25.2313 4.66137 25.0315 4.80104 24.8666 4.977C24.5234 5.3336 24.3317 5.8093 24.3317 6.30424C24.3317 6.79918 24.5234 7.27488 24.8666 7.63147C25.0317 7.80718 25.2315 7.9466 25.4534 8.04087C25.6752 8.13514 25.9143 8.1822 26.1553 8.17904C26.5534 8.18943 26.9427 8.06127 27.2567 7.81647C27.3777 7.72018 27.5276 7.66742 27.6823 7.6667C27.8369 7.66597 27.9873 7.71732 28.1092 7.81248L28.1069 7.80562Z" fill="#DADCE0"/>
<path d="M33.6009 9.49799H32.6176C32.6075 9.49799 32.5974 9.49598 32.588 9.49207C32.5786 9.48816 32.5701 9.48243 32.5629 9.47521C32.5558 9.46799 32.5501 9.45943 32.5463 9.45001C32.5424 9.44059 32.5405 9.43051 32.5406 9.42034C32.5404 9.41014 32.5383 9.40007 32.5342 9.39071C32.5302 9.38134 32.5243 9.37286 32.517 9.36576C32.5097 9.35865 32.5011 9.35306 32.4916 9.3493C32.4821 9.34554 32.472 9.34367 32.4618 9.34383C32.4494 9.34421 32.4373 9.34733 32.4264 9.35296C32.1801 9.482 31.8541 9.54633 31.4483 9.54595C31.1203 9.55157 30.7947 9.48935 30.4918 9.36319C30.189 9.23703 29.9155 9.04966 29.6885 8.81282C29.2224 8.33668 28.9613 7.69685 28.9613 7.03051C28.9613 6.36417 29.2224 5.72435 29.6885 5.24821C29.9154 5.01091 30.1889 4.82311 30.4918 4.69665C30.7948 4.57018 31.1206 4.50778 31.4489 4.51336C31.8463 4.51336 32.167 4.58511 32.411 4.72862C32.4208 4.73435 32.4316 4.73809 32.4429 4.73961C32.4541 4.74113 32.4656 4.74042 32.4766 4.7375C32.4876 4.73458 32.4979 4.72952 32.5069 4.72261C32.5159 4.71569 32.5235 4.70706 32.5291 4.69722C32.5371 4.68331 32.5412 4.66755 32.5411 4.65154C32.5413 4.62836 32.5505 4.60617 32.5669 4.58973C32.5832 4.57328 32.6053 4.5639 32.6285 4.5636H33.5632C33.6115 4.5633 33.6593 4.57257 33.704 4.59087C33.7487 4.60917 33.7893 4.63614 33.8235 4.67023C33.8577 4.70431 33.8848 4.74483 33.9032 4.78945C33.9216 4.83407 33.931 4.8819 33.9309 4.93017V9.1771C33.9309 9.21984 33.9225 9.26216 33.9061 9.30165C33.8898 9.34114 33.8658 9.37701 33.8356 9.40723C33.8053 9.43746 33.7695 9.46143 33.73 9.47778C33.6905 9.49414 33.6482 9.50256 33.6054 9.50256L33.6009 9.49799ZM31.4489 8.15791C31.5926 8.16023 31.7352 8.13253 31.8677 8.07659C32.0001 8.02065 32.1194 7.93769 32.218 7.83302C32.322 7.72784 32.4041 7.60299 32.4594 7.46574C32.5147 7.32849 32.5421 7.1816 32.54 7.03365V7.02965C32.542 6.88172 32.5145 6.73487 32.4592 6.59764C32.4039 6.46041 32.3219 6.33554 32.218 6.23029C32.1196 6.12501 32.0005 6.04136 31.8681 5.98464C31.7357 5.92792 31.5929 5.89938 31.4489 5.90083C31.3046 5.89919 31.1615 5.92729 31.0286 5.98339C30.8957 6.03948 30.7758 6.12236 30.6763 6.22686C30.4699 6.44329 30.3548 6.73087 30.3548 7.02994C30.3548 7.32901 30.4699 7.61659 30.6763 7.83302C30.7758 7.9376 30.8957 8.02056 31.0286 8.07676C31.1615 8.13295 31.3046 8.16115 31.4489 8.15962V8.15791Z" fill="#DADCE0"/>
<path d="M37.4338 6.76244C37.2272 6.60676 36.916 6.47048 36.5003 6.35362C36.2274 6.27825 36.0795 6.22915 36.0561 6.20517C36.0448 6.19377 36.0358 6.18022 36.0299 6.16531C36.0239 6.1504 36.0209 6.13444 36.0213 6.11838C36.0187 6.10541 36.0175 6.0922 36.0178 6.07898C36.017 6.0391 36.0243 5.99948 36.0392 5.96248C36.0541 5.92549 36.0764 5.8919 36.1046 5.86372C36.1321 5.83574 36.1649 5.81345 36.201 5.79813C36.2371 5.78281 36.2759 5.77476 36.3152 5.77444C36.3544 5.77412 36.3933 5.78154 36.4297 5.79627C36.4661 5.811 36.4992 5.83276 36.5271 5.8603L36.5306 5.86372C36.5588 5.89195 36.581 5.92554 36.596 5.96251C36.611 5.99948 36.6185 6.03908 36.6179 6.07898V6.08526C36.6282 6.09473 36.6367 6.10594 36.643 6.11838H37.6582C37.6989 6.11876 37.7393 6.1111 37.777 6.09586C37.8148 6.08062 37.8491 6.05809 37.8781 6.02956C37.9071 6.00103 37.9302 5.96705 37.9461 5.92958C37.9619 5.89211 37.9703 5.85188 37.9706 5.81119C37.9707 5.78286 37.967 5.75463 37.9597 5.72726C37.8835 5.44122 37.726 5.18339 37.5064 4.98499C37.1836 4.68318 36.7583 4.51527 36.3164 4.51527C35.8746 4.51527 35.4492 4.68318 35.1265 4.98499C34.9676 5.1281 34.841 5.30338 34.7551 5.49919C34.6691 5.69499 34.6259 5.90684 34.6281 6.12066C34.6281 6.62312 34.8125 7.01196 35.1813 7.28717C35.388 7.44171 35.7026 7.57818 36.1252 7.69656C36.4068 7.77269 36.5591 7.82617 36.582 7.85701C36.5926 7.86877 36.6008 7.88257 36.606 7.89759C36.6112 7.9126 36.6133 7.92851 36.6122 7.94436C36.6152 7.9571 36.6167 7.97012 36.6168 7.98319C36.6173 8.04255 36.6003 8.10075 36.5678 8.15045C36.5354 8.20016 36.4889 8.23915 36.4344 8.26253C36.3798 8.28591 36.3196 8.29262 36.2612 8.28183C36.2028 8.27104 36.1489 8.24322 36.1063 8.20187L36.1029 8.19845C36.0747 8.17027 36.0524 8.13668 36.0375 8.09969C36.0226 8.0627 36.0153 8.02307 36.0161 7.98319C36.007 7.97182 36 7.95885 35.9956 7.94493H34.9866C34.9019 7.94478 34.8206 7.97825 34.7606 8.03798C34.7005 8.09771 34.6666 8.17884 34.6663 8.26354C34.6663 8.29108 34.6698 8.31851 34.6766 8.34519C34.7522 8.62805 34.9074 8.88329 35.1237 9.08061C35.4463 9.38267 35.8717 9.55075 36.3136 9.55075C36.7555 9.55075 37.1809 9.38267 37.5035 9.08061C37.6632 8.93806 37.7906 8.76294 37.877 8.56704C37.9633 8.37114 38.0067 8.15901 38.0043 7.94493C38.0043 7.43829 37.8141 7.04412 37.4338 6.76244Z" fill="#DADCE0"/>
<path d="M41.0498 4.52593C41.357 4.52269 41.6612 4.58551 41.942 4.71012C42.2228 4.83474 42.4734 5.01825 42.6771 5.24821C43.1226 5.72018 43.365 6.34822 43.352 6.99712V8.81853C43.3517 8.99874 43.2799 9.17148 43.1524 9.29885C43.025 9.42623 42.8522 9.49785 42.672 9.498C42.4914 9.498 42.3183 9.42629 42.1907 9.29865C42.0631 9.17101 41.9913 8.9979 41.9913 8.81739V6.99712C41.9986 6.71027 41.9012 6.43059 41.7173 6.21031C41.6387 6.10991 41.5383 6.0287 41.4237 5.97286C41.3091 5.91701 41.1833 5.88799 41.0558 5.88799C40.9283 5.88799 40.8025 5.91701 40.6879 5.97286C40.5733 6.0287 40.4729 6.10991 40.3943 6.21031C40.2109 6.42951 40.1135 6.70795 40.1203 6.99369V8.90818C40.1197 9.06511 40.0568 9.21539 39.9454 9.32599C39.8341 9.43658 39.6834 9.49845 39.5264 9.498H39.3477C39.1908 9.498 39.0404 9.43567 38.9295 9.32474C38.8185 9.21381 38.7562 9.06335 38.7562 8.90647V3.76767C38.756 3.58726 38.8275 3.41417 38.9549 3.28644C39.0823 3.15872 39.2552 3.0868 39.4357 3.08649C39.525 3.08642 39.6136 3.10395 39.6962 3.13808C39.7788 3.17222 39.8538 3.22229 39.9171 3.28544C39.9803 3.34858 40.0305 3.42357 40.0648 3.50612C40.0991 3.58866 40.1168 3.67715 40.1168 3.76653V4.73719C40.408 4.59744 40.7269 4.52523 41.0498 4.52593Z" fill="#DADCE0"/>
<path d="M11.7433 8.54902C12.289 7.87973 12.583 7.0405 12.5745 6.177C12.5659 5.3135 12.2553 4.48026 11.6965 3.8219C11.6318 3.74393 11.5506 3.68135 11.4586 3.63875C11.3667 3.59614 11.2665 3.57457 11.1652 3.57561C11.0639 3.57665 10.9641 3.60027 10.8731 3.64476C10.782 3.68924 10.7021 3.75346 10.639 3.83275C10.4992 4.0042 10.4238 4.21921 10.426 4.44044C10.4282 4.66167 10.5078 4.87515 10.651 5.0438C11.2111 5.67187 11.222 6.70363 10.6739 7.34369C10.5341 7.5153 10.4588 7.73044 10.4611 7.95177C10.4634 8.1731 10.5431 8.38663 10.6864 8.5553C10.8029 8.69366 10.9693 8.78036 11.1494 8.79651C11.3295 8.81266 11.5087 8.75695 11.6479 8.64152C11.6828 8.61236 11.7148 8.57985 11.7433 8.54446V8.54902Z" fill="#F8F8F8"/>
<path d="M13.523 10.0833C14.424 9.02923 14.9122 7.63604 14.8974 6.15836C14.8825 4.68067 14.367 3.30004 13.4443 2.26144C13.328 2.12292 13.1616 2.036 12.9815 2.01963C12.8014 2.00327 12.6221 2.05878 12.4827 2.17408C12.4478 2.20378 12.4157 2.23666 12.3868 2.27229C12.2473 2.44403 12.1722 2.65912 12.1745 2.88036C12.1768 3.10159 12.2564 3.31508 12.3994 3.4839C13.7166 4.95645 13.7377 7.38082 12.4536 8.88192C12.3137 9.05339 12.2382 9.26846 12.2403 9.48979C12.2423 9.71111 12.3219 9.92472 12.465 10.0935C12.581 10.2327 12.7474 10.3203 12.9279 10.3371C13.1083 10.3539 13.288 10.2986 13.4277 10.1832C13.4626 10.154 13.4945 10.1215 13.523 10.0861V10.0833Z" fill="#F8F8F8"/>
<path d="M7.06186 5.29332H8.95294C9.03662 5.29332 9.11948 5.3098 9.19679 5.34183C9.2741 5.37385 9.34434 5.42078 9.40351 5.47996C9.46268 5.53913 9.50962 5.60937 9.54164 5.68668C9.57367 5.76399 9.59015 5.84685 9.59015 5.93053V5.98763C9.59686 6.41632 9.51619 6.8419 9.35303 7.23839C9.18988 7.63489 8.94767 7.99399 8.64118 8.29381C8.35135 8.59236 8.00555 8.83091 7.62352 8.99582C7.2415 9.16073 6.83073 9.24877 6.41467 9.25492C5.99862 9.26107 5.58543 9.18521 5.19869 9.03166C4.81196 8.87812 4.45926 8.6499 4.16073 8.36004C4.13789 8.33834 4.11562 8.31607 4.09392 8.29381C3.4862 7.67929 3.14535 6.84989 3.14535 5.98563C3.14535 5.12136 3.4862 4.29197 4.09392 3.67746C4.38507 3.36815 4.73744 3.12287 5.12859 2.95722C5.51975 2.79158 5.94111 2.70921 6.36584 2.71536C7.11611 2.71536 7.76207 2.93043 8.30374 3.36056C8.38572 3.42637 8.4516 3.51002 8.49637 3.60515C8.54113 3.70027 8.5636 3.80435 8.56206 3.90947C8.56052 4.01458 8.53501 4.11796 8.48747 4.21173C8.43994 4.3055 8.37163 4.38718 8.28775 4.45056L8.27861 4.45684C8.15526 4.54899 8.0051 4.59817 7.85113 4.59683C7.69716 4.59549 7.54788 4.5437 7.42615 4.44942C7.11997 4.22235 6.74694 4.10363 6.36584 4.11197C6.12471 4.10896 5.8856 4.15619 5.66373 4.25066C5.44186 4.34513 5.24209 4.48477 5.07715 4.66068C4.73419 5.01741 4.54263 5.49306 4.54263 5.98791C4.54263 6.48277 4.73419 6.95841 5.07715 7.31515C5.37503 7.62421 5.77391 7.81614 6.20129 7.85606C6.62867 7.89598 7.0562 7.78124 7.40616 7.53269C7.7058 7.32282 7.93554 7.02784 8.06564 6.68593H7.05958C6.87463 6.68578 6.6973 6.6122 6.56658 6.48137C6.43585 6.35054 6.36242 6.17315 6.36242 5.9882C6.36271 5.89665 6.38104 5.80605 6.41636 5.72158C6.45167 5.63711 6.50327 5.56042 6.56822 5.4959C6.63317 5.43137 6.7102 5.38027 6.79489 5.34551C6.87959 5.31076 6.97031 5.29302 7.06186 5.29332Z" fill="#DADCE0"/>
<path d="M6.30301 1.67962C5.16676 1.67962 4.19325 2.09148 3.38246 2.91521C2.57167 3.73894 2.16742 4.73416 2.1697 5.90085C2.1697 7.06793 2.57395 8.06314 3.38246 8.88649C4.19096 9.70984 5.16448 10.1209 6.30301 10.1198C6.89483 10.1211 7.47979 9.99309 8.017 9.74476C8.5542 9.49642 9.03068 9.13375 9.41312 8.68208C9.50741 8.57088 9.63938 8.49834 9.7838 8.47832C9.92822 8.45831 10.0749 8.49223 10.1959 8.5736C10.3259 8.6606 10.4161 8.79567 10.4465 8.94912C10.4769 9.10256 10.4451 9.2618 10.3581 9.39181C10.3467 9.40878 10.3345 9.42517 10.3215 9.44091C9.89627 9.94537 9.38037 10.3658 8.80046 10.6805C8.03396 11.099 7.17401 11.3166 6.30072 11.3131C4.83331 11.3131 3.57906 10.7825 2.53798 9.72126C1.4969 8.66 0.979406 7.38654 0.985496 5.90085C0.985496 4.40946 1.50375 3.13561 2.54027 2.0793C3.57678 1.023 4.83103 0.492749 6.30301 0.488561C7.17612 0.485307 8.03593 0.702518 8.80274 1.12006C9.38237 1.43566 9.89819 1.85641 10.3238 2.3608C10.3734 2.42045 10.4107 2.48929 10.4336 2.56338C10.4565 2.63747 10.4646 2.71535 10.4574 2.79257C10.4502 2.86979 10.4278 2.94483 10.3916 3.01339C10.3553 3.08196 10.3059 3.1427 10.2462 3.19214C10.2306 3.20513 10.2144 3.21733 10.1976 3.22868C10.0766 3.30988 9.9299 3.34359 9.78557 3.32337C9.64124 3.30314 9.50944 3.23039 9.4154 3.11905C9.03279 2.667 8.55596 2.30409 8.01832 2.05573C7.48068 1.80738 6.89523 1.67959 6.30301 1.68133V1.67962Z" fill="#E9ECF1"/>
</svg>
