<svg width="24" height="24" viewBox="0 0 24 24" fill="none" xmlns="http://www.w3.org/2000/svg">
<path d="M12.0223 15.9955C9.82235 15.9955 8.02699 14.2001 8.02699 12C8.02699 9.8 9.82235 8.0046 12.0223 8.0046C14.2223 8.0046 16.0177 9.8 16.0177 12C16.0177 14.2001 14.2223 15.9955 12.0223 15.9955ZM24.0054 12C24.0054 13.6545 24.0204 15.2941 23.9275 16.9456C23.8346 18.8639 23.397 20.5664 21.9942 21.9691C20.5885 23.3749 18.8891 23.8095 16.9708 23.9024C15.3163 23.9953 13.6768 23.9803 12.0253 23.9803C10.3708 23.9803 8.73135 23.9953 7.07985 23.9024C5.16161 23.8095 3.45916 23.3719 2.05644 21.9691C0.650726 20.5634 0.216123 18.8639 0.123208 16.9456C0.030293 15.2911 0.0452793 13.6516 0.0452793 12C0.0452793 10.3485 0.030293 8.70598 0.123208 7.05445C0.216123 5.13617 0.653724 3.43369 2.05644 2.03095C3.46216 0.625206 5.16161 0.190596 7.07985 0.0976791C8.73434 0.00476074 10.3738 0.0197468 12.0253 0.0197468C13.6798 0.0197468 15.3193 0.00476074 16.9708 0.0976791C18.8891 0.190596 20.5915 0.628204 21.9942 2.03095C23.3999 3.43669 23.8346 5.13617 23.9275 7.05445C24.0234 8.70598 24.0054 10.3455 24.0054 12ZM12.0223 5.85253C8.62045 5.85253 5.87495 8.59807 5.87495 12C5.87495 15.402 8.62045 18.1475 12.0223 18.1475C15.4242 18.1475 18.1697 15.402 18.1697 12C18.1697 8.59807 15.4242 5.85253 12.0223 5.85253ZM18.4215 16.9636C17.6272 16.9636 16.9858 17.605 16.9858 18.3993C16.9858 19.1936 17.6272 19.835 18.4215 19.835C19.2158 19.835 19.8572 19.1936 19.8572 18.3993C19.8574 18.2107 19.8204 18.0239 19.7484 17.8496C19.6763 17.6753 19.5706 17.5169 19.4372 17.3836C19.3038 17.2502 19.1455 17.1445 18.9712 17.0724C18.7969 17.0003 18.6101 16.9634 18.4215 16.9636Z" fill="white"/>
</svg>
