<svg width="20" height="20" viewBox="0 0 20 20" fill="none" xmlns="http://www.w3.org/2000/svg">
<path d="M16 0C18.2091 0 20 1.79086 20 4V16C20 18.2091 18.2091 20 16 20H4C1.79086 20 3.22133e-08 18.2091 0 16V4C0 1.79086 1.79086 3.22128e-08 4 0H16ZM7.5 2.5C6.96957 2.5 6.46101 2.71086 6.08594 3.08594C5.71087 3.46101 5.5 3.96957 5.5 4.5V15.5L5.50977 15.6973C5.55515 16.1553 5.75765 16.5858 6.08594 16.9141C6.46101 17.2891 6.96957 17.5 7.5 17.5H12.5C13.0304 17.5 13.539 17.2891 13.9141 16.9141C14.2891 16.539 14.5 16.0304 14.5 15.5V4.5C14.5 3.96957 14.2891 3.46101 13.9141 3.08594C13.539 2.71086 13.0304 2.5 12.5 2.5H7.5ZM8.5 3.5V4C8.5 4.27614 8.72386 4.5 9 4.5H11C11.2761 4.5 11.5 4.27614 11.5 4V3.5H12.5C12.7652 3.5 13.0195 3.60543 13.207 3.79297C13.3946 3.98051 13.5 4.23478 13.5 4.5V15.5C13.5 15.7652 13.3946 16.0195 13.207 16.207C13.0195 16.3946 12.7652 16.5 12.5 16.5H7.5C7.23478 16.5 6.9805 16.3946 6.79297 16.207C6.62883 16.0429 6.52757 15.8276 6.50488 15.5986L6.5 15.5V4.5C6.5 4.23478 6.60543 3.98051 6.79297 3.79297C6.9805 3.60543 7.23478 3.5 7.5 3.5H8.5ZM9 15C8.72386 15 8.5 15.2239 8.5 15.5C8.5 15.7761 8.72386 16 9 16H11C11.2761 16 11.5 15.7761 11.5 15.5C11.5 15.2239 11.2761 15 11 15H9Z" fill="white"/>
</svg>
