<svg width="23" height="22" viewBox="0 0 23 22" fill="none" xmlns="http://www.w3.org/2000/svg">
<path d="M17.44 16.5733C17.2658 16.5733 17.1192 16.5825 16.9725 16.5733C16.5325 16.5458 16.2392 16.2525 16.2392 15.8217C16.2392 13.6767 16.2392 11.5408 16.2392 9.39583C16.2392 8.965 16.56 8.65333 16.9908 8.635C17.275 8.62583 17.5683 8.635 17.8892 8.635C17.8433 6.37083 16.9633 4.55583 15.1025 3.30917C12.9483 1.85167 10.6383 1.75083 8.37418 3.025C6.23834 4.2075 5.20251 6.1325 5.12001 8.62583C5.37668 8.62583 5.60584 8.62583 5.84418 8.62583C6.50418 8.62583 6.79751 8.91 6.79751 9.57917C6.79751 11.5958 6.79751 13.6217 6.79751 15.6383C6.79751 16.2983 6.52251 16.5917 5.86251 16.5733C5.26668 16.555 4.65251 16.5825 4.07501 16.4633C2.73668 16.1975 1.67334 14.9417 1.56334 13.585C1.49918 12.7783 1.45334 11.9625 1.64584 11.165C1.88418 10.2117 2.43418 9.47833 3.31418 9.03833C3.52501 8.92833 3.59834 8.81833 3.60751 8.58C3.67168 5.3625 5.13834 2.97917 7.96168 1.47583C9.48334 0.669167 11.1333 0.449167 12.8292 0.742501C16.0833 1.30167 18.595 3.72167 19.2642 6.96667C19.3833 7.52583 19.3833 8.1125 19.42 8.69C19.4292 8.8275 19.4567 8.91 19.585 8.97417C20.8225 9.58833 21.4458 10.615 21.4825 11.9717C21.5008 12.6042 21.51 13.255 21.4092 13.8783C21.1892 15.1067 20.4283 15.9225 19.2733 16.3808C19.1358 16.4358 19.0717 16.5 19.035 16.6467C18.65 18.315 17.3117 19.3875 15.6067 19.4058C15.1117 19.415 14.6075 19.4058 14.0942 19.4058C13.9658 19.91 13.6908 20.3317 13.3242 20.6892C12.5725 21.4042 11.39 21.5967 10.4183 21.1567C9.44668 20.7167 8.83251 19.7083 8.85084 18.6817C8.87834 17.2608 10.0333 16.0325 11.5642 16.0692C12.6825 16.0967 13.4892 16.665 13.9567 17.6825C14.0208 17.82 14.085 17.875 14.2408 17.875C14.8 17.8567 15.3592 17.8842 15.9092 17.8383C16.6058 17.7742 17.0917 17.3708 17.3942 16.7475C17.4125 16.6925 17.4217 16.6467 17.44 16.5733ZM5.53251 9.5425C5.34918 9.5425 5.20251 9.5425 5.05584 9.5425C3.65334 9.57917 2.62668 10.5233 2.59918 11.825C2.59001 12.3658 2.58084 12.9067 2.59918 13.4383C2.65418 14.8592 4.00168 15.8767 5.53251 15.6475C5.53251 13.6217 5.53251 11.5958 5.53251 9.5425ZM17.3667 15.7667C17.5317 15.7667 17.6692 15.7667 17.8067 15.7667C19.2825 15.7117 20.2908 14.7308 20.3 13.3283C20.3092 12.76 20.3183 12.2008 20.2908 11.6325C20.2267 10.2483 18.815 9.22167 17.3667 9.4875C17.3667 11.5683 17.3667 13.6492 17.3667 15.7667ZM11.4908 17.4075C10.7025 17.4167 10.0517 18.0675 10.0517 18.8558C10.0517 19.635 10.7117 20.2858 11.5 20.2858C12.2975 20.2858 12.9667 19.6167 12.9575 18.8283C12.9483 18.04 12.2883 17.3983 11.4908 17.4075Z" fill="white"/>
</svg>
