<svg width="20" height="21" viewBox="0 0 20 21" fill="none" xmlns="http://www.w3.org/2000/svg">
<path d="M15.9322 15.9549C15.758 15.9549 15.6113 15.9641 15.4647 15.9549C15.0247 15.9274 14.7313 15.6341 14.7313 15.2032C14.7313 13.0582 14.7313 10.9224 14.7313 8.77739C14.7313 8.34655 15.0522 8.03489 15.483 8.01655C15.7672 8.00739 16.0605 8.01655 16.3813 8.01655C16.3355 5.75239 15.4555 3.93739 13.5947 2.69072C11.4405 1.23322 9.1305 1.13239 6.86634 2.40655C4.7305 3.58905 3.69467 5.51405 3.61217 8.00739C3.86884 8.00739 4.098 8.00739 4.33634 8.00739C4.99634 8.00739 5.28967 8.29155 5.28967 8.96072C5.28967 10.9774 5.28967 13.0032 5.28967 15.0199C5.28967 15.6799 5.01467 15.9732 4.35467 15.9549C3.75883 15.9366 3.14467 15.9641 2.56717 15.8449C1.22884 15.5791 0.165502 14.3232 0.0555016 12.9666C-0.0086651 12.1599 -0.0544984 11.3441 0.138002 10.5466C0.376335 9.59322 0.926335 8.85989 1.80633 8.41989C2.01717 8.30989 2.0905 8.19989 2.09967 7.96155C2.16384 4.74405 3.6305 2.36072 6.45384 0.857388C7.9755 0.0507209 9.6255 -0.169279 11.3213 0.124054C14.5755 0.683221 17.0872 3.10322 17.7563 6.34822C17.8755 6.90739 17.8755 7.49405 17.9122 8.07155C17.9213 8.20905 17.9488 8.29155 18.0772 8.35572C19.3147 8.96989 19.938 9.99655 19.9747 11.3532C19.993 11.9857 20.0022 12.6366 19.9013 13.2599C19.6813 14.4882 18.9205 15.3041 17.7655 15.7624C17.628 15.8174 17.5638 15.8816 17.5272 16.0282C17.1422 17.6966 15.8038 18.7691 14.0988 18.7874C13.6038 18.7966 13.0997 18.7874 12.5863 18.7874C12.458 19.2916 12.183 19.7132 11.8163 20.0707C11.0647 20.7857 9.88217 20.9782 8.9105 20.5382C7.93883 20.0982 7.32467 19.0899 7.343 18.0632C7.3705 16.6424 8.5255 15.4141 10.0563 15.4507C11.1747 15.4782 11.9813 16.0466 12.4488 17.0641C12.513 17.2016 12.5772 17.2566 12.733 17.2566C13.2922 17.2382 13.8513 17.2657 14.4013 17.2199C15.098 17.1557 15.5838 16.7524 15.8863 16.1291C15.9047 16.0741 15.9138 16.0282 15.9322 15.9549ZM4.02467 8.92405C3.84133 8.92405 3.69467 8.92405 3.548 8.92405C2.1455 8.96072 1.11883 9.90489 1.09133 11.2066C1.08217 11.7474 1.073 12.2882 1.09133 12.8199C1.14633 14.2407 2.49383 15.2582 4.02467 15.0291C4.02467 13.0032 4.02467 10.9774 4.02467 8.92405ZM15.8588 15.1482C16.0238 15.1482 16.1613 15.1482 16.2988 15.1482C17.7747 15.0932 18.783 14.1124 18.7922 12.7099C18.8013 12.1416 18.8105 11.5824 18.783 11.0141C18.7188 9.62989 17.3072 8.60322 15.8588 8.86905C15.8588 10.9499 15.8588 13.0307 15.8588 15.1482ZM9.983 16.7891C9.19467 16.7982 8.54384 17.4491 8.54384 18.2374C8.54384 19.0166 9.20384 19.6674 9.99217 19.6674C10.7897 19.6674 11.4588 18.9982 11.4497 18.2099C11.4405 17.4216 10.7805 16.7799 9.983 16.7891Z" fill="#1E22AA"/>
</svg>
