<svg width="24" height="28" viewBox="0 0 24 28" fill="none" xmlns="http://www.w3.org/2000/svg">
<g clip-path="url(#clip0_35_1183)">
<path d="M17.6353 10.2928C19.3416 11.5119 21.432 12.2293 23.6896 12.2293V7.88722C23.2623 7.88731 22.8361 7.84273 22.4181 7.75421V11.172C20.1607 11.172 18.0706 10.4548 16.3639 9.23578V18.0967C16.3639 22.5294 12.7686 26.1225 8.33398 26.1225C6.6793 26.1225 5.14127 25.6226 3.86369 24.765C5.32188 26.2553 7.3554 27.1797 9.60507 27.1797C14.0401 27.1797 17.6355 23.5866 17.6355 19.1537V10.2928H17.6353ZM19.2038 5.91225C18.3318 4.96008 17.7592 3.72955 17.6353 2.36911V1.81067H16.4305C16.7337 3.53971 17.7682 5.0169 19.2038 5.91225H19.2038ZM6.66861 21.3636C6.18141 20.7252 5.91805 19.944 5.91924 19.141C5.91924 17.1136 7.56369 15.4698 9.59256 15.4698C9.9706 15.4696 10.3464 15.5277 10.7068 15.6418V11.2027C10.2857 11.1451 9.86068 11.1205 9.43588 11.1295V14.5847C9.07534 14.4704 8.69932 14.4124 8.3211 14.4128C6.29232 14.4128 4.64796 16.0564 4.64796 18.084C4.64796 19.5177 5.46987 20.7589 6.66861 21.3636Z" fill="white"/>
<path d="M16.364 9.23569C18.0708 10.4547 20.1607 11.1719 22.4182 11.1719V7.75412C21.1581 7.48582 20.0425 6.82771 19.2038 5.91225C17.7682 5.01681 16.7338 3.53962 16.4305 1.81067H13.2658V19.1535C13.2585 21.1753 11.6169 22.8124 9.59245 22.8124C8.39955 22.8124 7.33967 22.2441 6.6685 21.3635C5.46994 20.7589 4.64794 19.5176 4.64794 18.0841C4.64794 16.0567 6.2923 14.4129 8.32108 14.4129C8.70979 14.4129 9.08443 14.4733 9.43587 14.5848V11.1296C5.07904 11.2196 1.57518 14.7776 1.57518 19.1536C1.57518 21.338 2.4477 23.3183 3.86386 24.7652C5.14143 25.6226 6.67937 26.1227 8.33414 26.1227C12.7689 26.1227 16.3641 22.5293 16.3641 18.0967V9.23578H16.364V9.23569Z" fill="white"/>
<path d="M22.4182 7.7542V6.83025C21.2818 6.83197 20.1679 6.51391 19.2038 5.91242C20.0572 6.84625 21.181 7.49021 22.4182 7.75438V7.7542ZM16.4304 1.81074C16.4015 1.64554 16.3793 1.47923 16.3639 1.31223V0.753784H11.9941V18.0968C11.9872 20.1184 10.3456 21.7555 8.32098 21.7555C7.74703 21.7563 7.18092 21.6222 6.6684 21.3638C7.33957 22.2442 8.39945 22.8124 9.59234 22.8124C11.6167 22.8124 13.2585 21.1756 13.2657 19.1537V1.81083H16.4304V1.81074ZM9.43604 11.1297V10.1459C9.07089 10.096 8.70277 10.071 8.33422 10.0712C3.89902 10.0712 0.303802 13.6645 0.303802 18.0968C0.303802 20.8757 1.71677 23.3247 3.86394 24.7652C2.44778 23.3184 1.57526 21.338 1.57526 19.1536C1.57526 14.7778 5.07903 11.2198 9.43604 11.1298V11.1297Z" fill="white"/>
</g>
<defs>
<clipPath id="clip0_35_1183">
<rect width="23.3865" height="26.4925" fill="white" transform="translate(0.303802 0.753784)"/>
</clipPath>
</defs>
</svg>
