<svg width="29" height="20" viewBox="0 0 29 20" fill="none" xmlns="http://www.w3.org/2000/svg">
<path d="M27.444 3.0777C27.283 2.48283 26.969 1.9405 26.5333 1.50473C26.0975 1.06896 25.5552 0.754939 24.9603 0.593943C22.7825 0 14.0177 0 14.0177 0C14.0177 0 5.25233 0.0179783 3.07454 0.611922C2.47966 0.772926 1.93735 1.08696 1.50159 1.52276C1.06583 1.95855 0.751847 2.5009 0.590895 3.09578C-0.0678362 6.9653 -0.32337 12.8615 0.608983 16.5763C0.769952 17.1711 1.08395 17.7134 1.5197 18.1492C1.95546 18.585 2.49776 18.899 3.09263 19.06C5.27042 19.654 14.0355 19.654 14.0355 19.654C14.0355 19.654 22.8005 19.654 24.9782 19.06C25.5731 18.899 26.1154 18.585 26.5512 18.1492C26.987 17.7135 27.301 17.1711 27.462 16.5763C28.1567 12.7013 28.3708 6.80875 27.444 3.07781V3.0777Z" fill="white"/>
<path d="M11.228 14.0383L18.4992 9.82677L11.228 5.61523V14.0383Z" fill="#1C27AE"/>
</svg>
